/* XPM */
static char *Free_Converter_com_bitcoin_pizza_64x64_32695943[] = {
/* columns rows colors chars-per-pixel */
"64 64 3 1 ",
"  c #E7C258",
". c #EBD45D",
"X c None",
/* pixels */
"XXXXXXXXXXXXXXXXXXXXXXX........XXXXXXXXXXXXXXXXXXXXXXXXXXXXXXXXX",
"XXXXXXXXXXXXXXXXXXX............XXXXXXXXXXXXXXXXXXXXXXXXXXXXXXXXX",
"XXXXXXXXXXXXXXXXX..............XXXXXXXXXXXXXXXXXXXXXXXXXXXXXXXXX",
"XXXXXXXXXXXXXXX................XX        XXXXXXXXXXXXXXXXXXXXXXX",
"XXXXXXXXXXXXX..................XX           XXXXXXXXXXXXXXXXXXXX",
"XXXXXXXXXXXX...................XX              XXXXXXXXXXXXXXXXX",
"XXXXXXXXXX.....................XX               XXXXXXXXXXXXXXXX",
"XXXXXXXXX......................XX                 XXXXXXXXXXXXXX",
"XXXXXXXX.......................XX                   XXXXXXXXXXXX",
"XXXXXXX........................XX                    XXXXXXXXXXX",
"XXXXXX.........................XX                     XXXXXXXXXX",
"XXXXXX.........................XX                      XXXXXXXXX",
"XXXXX..........................XX                       XXXXXXXX",
"XXXX...............XX..........XX                        XXXXXXX",
"XXXX...............XX..........XX    X                    XXXXXX",
"XXX.................X..........XX    X                     XXXXX",
"XXX............................XX    X                     XXXXX",
"XX.............................XX    X                      XXXX",
"XX.............................XX    X                      XXXX",
"X..............................XX    X                       XXX",
"X...........................XXXXXXXXXXXXX                    XXX",
"X..........................XXXXXXXXXXXXXXXX                   XX",
"...........................XXXXXXXXXXXXXXXXXX                 XX",
".............................XXXXX    XXXXXXXX                 X",
".............................XXXX        XXXXX                 X",
".............................XXXX        XXXXX                 X",
".............................XXXX         XXXXX                X",
".............................XXXX         XXXXX                 ",
"..........XXXX...............XXXX         XXXXX                 ",
".........XXXXXX..............XXXX        XXXXX                  ",
".........XXXXXX.............XXXXX        XXXXX                  ",
"XXXXXXXXXXXXXXXXXXXXXXXXXXXXXXXXXXXXXXXXXXXXX                   ",
"XXXXXXXXXXXXXXXXXXXXXXXXXXXXXXXXXXXXXXXXXXXXX                   ",
"XXX                          XXXXXXXXXXXXXXXXXXXXXXXXXXXXXXXXXXX",
"XXX                          XXXXX    XXXXXXXX                  ",
"XXX                          XXXX        XXXXX                  ",
"XXX                          XXXX        XXXXX                  ",
"XXX                          XXXX         XXXXX                 ",
"XXX                          XXXX         XXXXX                 ",
"XXX                          XXXX         XXXXX                 ",
"XXXX                         XXXX         XXXXX                X",
"XXXX                         XXXX        XXXXX                 X",
"XXXX                         XXXX        XXXXX                 X",
"XXXX                         XXXXX     XXXXXXX                XX",
"XXXXX                        XXXXXXXXXXXXXXXX                 XX",
"XXXXX                        XXXXXXXXXXXXXXX                  XX",
"XXXXXX                       XXXXXXXXXXXXX                   XXX",
"XXXXXX                          XX   XX                      XXX",
"XXXXXXX                          X   X                      XXXX",
"XXXXXXX                          X   X                      XXXX",
"XXXXXXXX                         X   X                     XXXXX",
"XXXXXXXXX                        X   X                    XXXXXX",
"XXXXXXXXX                        X                        XXXXXX",
"XXXXXXXXXX                       X                       XXXXXXX",
"XXXXXXXXXXX                      X                      XXXXXXXX",
"XXXXXXXXXXXX                     X                     XXXXXXXXX",
"XXXXXXXXXXXXX                    X                    XXXXXXXXXX",
"XXXXXXXXXXXXXX                   X                   XXXXXXXXXXX",
"XXXXXXXXXXXXXXXX                 X                 XXXXXXXXXXXXX",
"XXXXXXXXXXXXXXXXX                X                XXXXXXXXXXXXXX",
"XXXXXXXXXXXXXXXXXXX              X              XXXXXXXXXXXXXXXX",
"XXXXXXXXXXXXXXXXXXXXX            X            XXXXXXXXXXXXXXXXXX",
"XXXXXXXXXXXXXXXXXXXXXXXX         X         XXXXXXXXXXXXXXXXXXXXX",
"XXXXXXXXXXXXXXXXXXXXXXXXXXX      X      XXXXXXXXXXXXXXXXXXXXXXXX"
};
