/* XPM */
static char *Free_Converter_com_bitcoin_pizza_32x32_96425933[] = {
/* columns rows colors chars-per-pixel */
"32 32 3 1 ",
"  c #E7C258",
". c #EBD45D",
"X c None",
/* pixels */
"XXXXXXXXXX......XXXXXXXXXXXXXXXX",
"XXXXXXXX........X   XXXXXXXXXXXX",
"XXXXXX..........       XXXXXXXXX",
"XXXXX...........         XXXXXXX",
"XXXX............          XXXXXX",
"XXX.............           XXXXX",
"XX..............            XXXX",
"XX..............             XXX",
"X...............              XX",
"X...............              XX",
"..............XXXXXXX          X",
"..............XXXXXXXX         X",
"...............X     XX         ",
"...............X     XX         ",
".....XX........X     XX         ",
"XXXXXXXXXXXXXXXXX   XXX         ",
"XX            XXXXXXXXXXXXXXXXXX",
"X              XX   XXX         ",
"X              X     XX         ",
"X              X     XX         ",
"XX             X     XX         ",
"XX             XX   XXX        X",
"XX             XXXXXXX         X",
"XXX             X XX           X",
"XXX             X             XX",
"XXXX            X            XXX",
"XXXXX           X            XXX",
"XXXXXX          X           XXXX",
"XXXXXXX         X          XXXXX",
"XXXXXXXX        X        XXXXXXX",
"XXXXXXXXXX      X       XXXXXXXX",
"XXXXXXXXXXXX    X    XXXXXXXXXXX"
};
