/* XPM */
static char *Free_Converter_com_bitcoin_pizza_128x128_36925943[] = {
/* columns rows colors chars-per-pixel */
"128 128 3 1 ",
"  c #E7C258",
". c #EBD45D",
"X c None",
/* pixels */
"XXXXXXXXXXXXXXXXXXXXXXXXXXXXXXXXXXXXXXXXXXXXXXXXX.............XXXXXXXXXXXXXXXXXXXXXXXXXXXXXXXXXXXXXXXXXXXXXXXXXXXXXXXXXXXXXXXXXX",
"XXXXXXXXXXXXXXXXXXXXXXXXXXXXXXXXXXXXXXXXXXXX..................XXXXXXXXXXXXXXXXXXXXXXXXXXXXXXXXXXXXXXXXXXXXXXXXXXXXXXXXXXXXXXXXXX",
"XXXXXXXXXXXXXXXXXXXXXXXXXXXXXXXXXXXXXXXXX.....................XXXXXXXXXXXXXXXXXXXXXXXXXXXXXXXXXXXXXXXXXXXXXXXXXXXXXXXXXXXXXXXXXX",
"XXXXXXXXXXXXXXXXXXXXXXXXXXXXXXXXXXXXXX........................XXXXXXXXXXXXXXXXXXXXXXXXXXXXXXXXXXXXXXXXXXXXXXXXXXXXXXXXXXXXXXXXXX",
"XXXXXXXXXXXXXXXXXXXXXXXXXXXXXXXXXXX...........................XXXXXXXXXXXXXXXXXXXXXXXXXXXXXXXXXXXXXXXXXXXXXXXXXXXXXXXXXXXXXXXXXX",
"XXXXXXXXXXXXXXXXXXXXXXXXXXXXXXXXX.............................XXXXX    XXXXXXXXXXXXXXXXXXXXXXXXXXXXXXXXXXXXXXXXXXXXXXXXXXXXXXXXX",
"XXXXXXXXXXXXXXXXXXXXXXXXXXXXXXX...............................XXXXX           XXXXXXXXXXXXXXXXXXXXXXXXXXXXXXXXXXXXXXXXXXXXXXXXXX",
"XXXXXXXXXXXXXXXXXXXXXXXXXXXXX.................................XXXXX                XXXXXXXXXXXXXXXXXXXXXXXXXXXXXXXXXXXXXXXXXXXXX",
"XXXXXXXXXXXXXXXXXXXXXXXXXXX...................................XXXXX                   XXXXXXXXXXXXXXXXXXXXXXXXXXXXXXXXXXXXXXXXXX",
"XXXXXXXXXXXXXXXXXXXXXXXXXX....................................XXXXX                      XXXXXXXXXXXXXXXXXXXXXXXXXXXXXXXXXXXXXXX",
"XXXXXXXXXXXXXXXXXXXXXXXX......................................XXXXX                        XXXXXXXXXXXXXXXXXXXXXXXXXXXXXXXXXXXXX",
"XXXXXXXXXXXXXXXXXXXXXXX.......................................XXXXX                           XXXXXXXXXXXXXXXXXXXXXXXXXXXXXXXXXX",
"XXXXXXXXXXXXXXXXXXXXXX........................................XXXXX                             XXXXXXXXXXXXXXXXXXXXXXXXXXXXXXXX",
"XXXXXXXXXXXXXXXXXXXX..........................................XXXXX                              XXXXXXXXXXXXXXXXXXXXXXXXXXXXXXX",
"XXXXXXXXXXXXXXXXXXX...........................................XXXXX                                XXXXXXXXXXXXXXXXXXXXXXXXXXXXX",
"XXXXXXXXXXXXXXXXXX............................................XXXXX                                  XXXXXXXXXXXXXXXXXXXXXXXXXXX",
"XXXXXXXXXXXXXXXXX.............................................XXXXX                                   XXXXXXXXXXXXXXXXXXXXXXXXXX",
"XXXXXXXXXXXXXXXX..............................................XXXXX                                    XXXXXXXXXXXXXXXXXXXXXXXXX",
"XXXXXXXXXXXXXXX...............................................XXXXX                                      XXXXXXXXXXXXXXXXXXXXXXX",
"XXXXXXXXXXXXXX................................................XXXXX                                       XXXXXXXXXXXXXXXXXXXXXX",
"XXXXXXXXXXXXX.................................................XXXXX                                        XXXXXXXXXXXXXXXXXXXXX",
"XXXXXXXXXXXX..................................................XXXXX                                         XXXXXXXXXXXXXXXXXXXX",
"XXXXXXXXXXXX..................................................XXXXX                                          XXXXXXXXXXXXXXXXXXX",
"XXXXXXXXXXX...................................................XXXXX                                           XXXXXXXXXXXXXXXXXX",
"XXXXXXXXXX....................................................XXXXX                                            XXXXXXXXXXXXXXXXX",
"XXXXXXXXXX....................................................XXXXX                                             XXXXXXXXXXXXXXXX",
"XXXXXXXXX..............................XXX....................XXXXX                                              XXXXXXXXXXXXXXX",
"XXXXXXXX..............................XXXXX...................XXXXX                                               XXXXXXXXXXXXXX",
"XXXXXXXX..............................XXXXX...................XXXXX                                                XXXXXXXXXXXXX",
"XXXXXXX...............................XXXXX...................XXXXX       XXX                                       XXXXXXXXXXXX",
"XXXXXXX...............................XXXXX...................XXXXX      XXXX                                       XXXXXXXXXXXX",
"XXXXXX..................................X.....................XXXXX      XXXX                                        XXXXXXXXXXX",
"XXXXXX........................................................XXXXX      XXXX                                         XXXXXXXXXX",
"XXXXX.........................................................XXXXX      XXXX                                         XXXXXXXXXX",
"XXXXX.........................................................XXXXX      XXXX                                          XXXXXXXXX",
"XXXX..........................................................XXXXX      XXXX                                           XXXXXXXX",
"XXXX..........................................................XXXXX      XXXX                                           XXXXXXXX",
"XXX...........................................................XXXXX      XXXX                                            XXXXXXX",
"XXX...........................................................XXXXX      XXXX                                            XXXXXXX",
"XXX...........................................................XXXXX      XXXX                                             XXXXXX",
"XX......................................................XXXXXXXXXXXXXXXXXXXXXXX                                           XXXXXX",
"XX.....................................................XXXXXXXXXXXXXXXXXXXXXXXXXXXXX                                       XXXXX",
"XX....................................................XXXXXXXXXXXXXXXXXXXXXXXXXXXXXXXX                                     XXXXX",
"XX....................................................XXXXXXXXXXXXXXXXXXXXXXXXXXXXXXXXXX                                    XXXX",
"X.....................................................XXXXXXXXXXXXXXXXXXXXXXXXXXXXXXXXXXX                                   XXXX",
"X......................................................XXXXXXXXXXXXXXXXXXXXXXXXXXXXXXXXXXX                                  XXXX",
"X.......................................................XXXXXXXXXXXXXXXXXXXXXXXXXXXXXXXXXXX                                  XXX",
"X.........................................................XXXXXXXXX           XXXXXXXXXXXXXX                                 XXX",
"X.........................................................XXXXXXXXX             XXXXXXXXXXXX                                 XXX",
"..........................................................XXXXXXXXX               XXXXXXXXXXX                                 XX",
"..........................................................XXXXXXXXX               XXXXXXXXXXX                                 XX",
"..........................................................XXXXXXXXX                XXXXXXXXXX                                 XX",
"..........................................................XXXXXXXXX                XXXXXXXXXX                                  X",
"..........................................................XXXXXXXXX                XXXXXXXXXX                                  X",
"..........................................................XXXXXXXXX                XXXXXXXXXX                                  X",
".....................XXXXX................................XXXXXXXXX                XXXXXXXXXX                                  X",
"....................XXXXXXXX..............................XXXXXXXXX                XXXXXXXXXX                                  X",
"...................XXXXXXXXXX.............................XXXXXXXXX                XXXXXXXXXX                                   ",
"..................XXXXXXXXXXX.............................XXXXXXXXX                XXXXXXXXXX                                   ",
"..................XXXXXXXXXXX.............................XXXXXXXXX               XXXXXXXXXXX                                   ",
"..................XXXXXXXXXXXX...........................XXXXXXXXXX              XXXXXXXXXXXX                                   ",
"XXXXXXXXXXXXXXXXXXXXXXXXXXXXXXXXXXXXXXXXXXXXXXXXXXXXXXXXXXXXXXXXXXX             XXXXXXXXXXXX                                    ",
"XXXXXXXXXXXXXXXXXXXXXXXXXXXXXXXXXXXXXXXXXXXXXXXXXXXXXXXXXXXXXXXXXXX         XXXXXXXXXXXXXXX                                     ",
"XXXXXXXXXXXXXXXXXXXXXXXXXXXXXXXXXXXXXXXXXXXXXXXXXXXXXXXXXXXXXXXXXXXXXXXXXXXXXXXXXXXXXXXXXX                                      ",
"XXXXXXXXXXXXXXXXXXXXXXXXXXXXXXXXXXXXXXXXXXXXXXXXXXXXXXXXXXXXXXXXXXXXXXXXXXXXXXXXXXXXXXXXX                                       ",
"XXXXXXXXXXXXXXXXXXXXXXXXXXXXXXXXXXXXXXXXXXXXXXXXXXXXXXXXXXXXXXXXXXXXXXXXXXXXXXXXXXXXXXXXXXXXXXXXXXXXXXXXXXXXXXXXXXXXXXXXXXXXXXXX",
"XXXXXX                                                   XXXXXXXXXXXXXXXXXXXXXXXXXXXXXXXXXXXXXXXXXXXXXXXXXXXXXXXXXXXXXXXXXXXXXXX",
"XXXXXX                                                    XXXXXXXXXXXXXXXXXXXXXXXXXXXXXXXXXXXXXXXXXXXXXXXXXXXXXXXXXXXXXXXXXXXXXX",
"XXXXXX                                                    XXXXXXXXXXXXXXXXXXXXXXXXXXXXXXXXX                                     ",
"XXXXXX                                                    XXXXXXXXX           XXXXXXXXXXXXX                                     ",
"XXXXXX                                                    XXXXXXXXX              XXXXXXXXXXX                                    ",
"XXXXXX                                                    XXXXXXXXX               XXXXXXXXXXX                                   ",
"XXXXXX                                                    XXXXXXXXX               XXXXXXXXXXX                                   ",
"XXXXXX                                                    XXXXXXXXX                XXXXXXXXXX                                   ",
"XXXXXX                                                    XXXXXXXXX                XXXXXXXXXX                                   ",
"XXXXXX                                                    XXXXXXXXX                XXXXXXXXXX                                   ",
"XXXXXX                                                    XXXXXXXXX                XXXXXXXXXX                                  X",
"XXXXXX                                                    XXXXXXXXX                XXXXXXXXXX                                  X",
"XXXXXXX                                                   XXXXXXXXX                XXXXXXXXXX                                  X",
"XXXXXXX                                                   XXXXXXXXX                XXXXXXXXXX                                  X",
"XXXXXXX                                                   XXXXXXXXX                XXXXXXXXXX                                  X",
"XXXXXXX                                                   XXXXXXXXX                XXXXXXXXXX                                 XX",
"XXXXXXXX                                                  XXXXXXXXX                XXXXXXXXXX                                 XX",
"XXXXXXXX                                                  XXXXXXXXX               XXXXXXXXXXX                                 XX",
"XXXXXXXX                                                  XXXXXXXXX               XXXXXXXXXXX                                 XX",
"XXXXXXXXX                                                 XXXXXXXXX              XXXXXXXXXXXX                                XXX",
"XXXXXXXXX                                                 XXXXXXXXX           XXXXXXXXXXXXXX                                 XXX",
"XXXXXXXXX                                                 XXXXXXXXXXXXXXXXXXXXXXXXXXXXXXXXX                                  XXX",
"XXXXXXXXXX                                                XXXXXXXXXXXXXXXXXXXXXXXXXXXXXXXXX                                 XXXX",
"XXXXXXXXXX                                                XXXXXXXXXXXXXXXXXXXXXXXXXXXXXXXX                                  XXXX",
"XXXXXXXXXX                                                XXXXXXXXXXXXXXXXXXXXXXXXXXXXXXX                                  XXXXX",
"XXXXXXXXXXX                                               XXXXXXXXXXXXXXXXXXXXXXXXXXXXX                                    XXXXX",
"XXXXXXXXXXX                                               XXXXXXXXXXXXXXXXXXXXXXXXXXXX                                     XXXXX",
"XXXXXXXXXXXX                                              XXXXXXXXXXXXXXXXXXXXXXXXX                                       XXXXXX",
"XXXXXXXXXXXX                                               XXXXXXXXXXXXXXXXXXX                                            XXXXXX",
"XXXXXXXXXXXXX                                                    XXXX    XXXX                                            XXXXXXX",
"XXXXXXXXXXXXX                                                    XXXX    XXXX                                            XXXXXXX",
"XXXXXXXXXXXXXX                                                   XXXX    XXXX                                           XXXXXXXX",
"XXXXXXXXXXXXXX                                                   XXXX    XXXX                                          XXXXXXXXX",
"XXXXXXXXXXXXXXX                                                  XXXX    XXXX                                          XXXXXXXXX",
"XXXXXXXXXXXXXXXX                                                 XXXX    XXXX                                         XXXXXXXXXX",
"XXXXXXXXXXXXXXXX                                                 XXXX    XXXX                                        XXXXXXXXXXX",
"XXXXXXXXXXXXXXXXX                                                XXXX    XXXX                                        XXXXXXXXXXX",
"XXXXXXXXXXXXXXXXXX                                               XXXX    XXXX                                       XXXXXXXXXXXX",
"XXXXXXXXXXXXXXXXXXX                                              XXXX     XX                                       XXXXXXXXXXXXX",
"XXXXXXXXXXXXXXXXXXX                                              XXXX                                             XXXXXXXXXXXXXX",
"XXXXXXXXXXXXXXXXXXXX                                             XXXX                                             XXXXXXXXXXXXXX",
"XXXXXXXXXXXXXXXXXXXXX                                            XXXX                                            XXXXXXXXXXXXXXX",
"XXXXXXXXXXXXXXXXXXXXXX                                           XXXX                                           XXXXXXXXXXXXXXXX",
"XXXXXXXXXXXXXXXXXXXXXXX                                          XXXX                                          XXXXXXXXXXXXXXXXX",
"XXXXXXXXXXXXXXXXXXXXXXXX                                         XXXX                                         XXXXXXXXXXXXXXXXXX",
"XXXXXXXXXXXXXXXXXXXXXXXXX                                        XXXX                                        XXXXXXXXXXXXXXXXXXX",
"XXXXXXXXXXXXXXXXXXXXXXXXXX                                       XXXX                                       XXXXXXXXXXXXXXXXXXXX",
"XXXXXXXXXXXXXXXXXXXXXXXXXXX                                      XXXX                                      XXXXXXXXXXXXXXXXXXXXX",
"XXXXXXXXXXXXXXXXXXXXXXXXXXXX                                     XXXX                                    XXXXXXXXXXXXXXXXXXXXXXX",
"XXXXXXXXXXXXXXXXXXXXXXXXXXXXXX                                   XXXX                                   XXXXXXXXXXXXXXXXXXXXXXXX",
"XXXXXXXXXXXXXXXXXXXXXXXXXXXXXXX                                  XXXX                                  XXXXXXXXXXXXXXXXXXXXXXXXX",
"XXXXXXXXXXXXXXXXXXXXXXXXXXXXXXXX                                 XXXX                                XXXXXXXXXXXXXXXXXXXXXXXXXXX",
"XXXXXXXXXXXXXXXXXXXXXXXXXXXXXXXXXX                               XXXX                               XXXXXXXXXXXXXXXXXXXXXXXXXXXX",
"XXXXXXXXXXXXXXXXXXXXXXXXXXXXXXXXXXXX                             XXXX                             XXXXXXXXXXXXXXXXXXXXXXXXXXXXXX",
"XXXXXXXXXXXXXXXXXXXXXXXXXXXXXXXXXXXXX                            XXXX                           XXXXXXXXXXXXXXXXXXXXXXXXXXXXXXXX",
"XXXXXXXXXXXXXXXXXXXXXXXXXXXXXXXXXXXXXXX                          XXXX                          XXXXXXXXXXXXXXXXXXXXXXXXXXXXXXXXX",
"XXXXXXXXXXXXXXXXXXXXXXXXXXXXXXXXXXXXXXXXX                        XXXX                       XXXXXXXXXXXXXXXXXXXXXXXXXXXXXXXXXXXX",
"XXXXXXXXXXXXXXXXXXXXXXXXXXXXXXXXXXXXXXXXXXXX                     XXXX                     XXXXXXXXXXXXXXXXXXXXXXXXXXXXXXXXXXXXXX",
"XXXXXXXXXXXXXXXXXXXXXXXXXXXXXXXXXXXXXXXXXXXXXX                   XXXX                  XXXXXXXXXXXXXXXXXXXXXXXXXXXXXXXXXXXXXXXXX",
"XXXXXXXXXXXXXXXXXXXXXXXXXXXXXXXXXXXXXXXXXXXXXXXXX                XXXX               XXXXXXXXXXXXXXXXXXXXXXXXXXXXXXXXXXXXXXXXXXXX",
"XXXXXXXXXXXXXXXXXXXXXXXXXXXXXXXXXXXXXXXXXXXXXXXXXXXXX            XXXX            XXXXXXXXXXXXXXXXXXXXXXXXXXXXXXXXXXXXXXXXXXXXXXX",
"XXXXXXXXXXXXXXXXXXXXXXXXXXXXXXXXXXXXXXXXXXXXXXXXXXXXXXXXXX       XXXX      XXXXXXXXXXXXXXXXXXXXXXXXXXXXXXXXXXXXXXXXXXXXXXXXXXXXX"
};
