/* XPM */
static char *Free_Converter_com_bitcoin_pizza_16x16_25125932[] = {
/* columns rows colors chars-per-pixel */
"16 16 3 1 ",
"  c #E7C258",
". c #EBD45D",
"X c None",
/* pixels */
"XXXX....XXXXXXXX",
"XX......    XXXX",
"X.......      XX",
"X.......       X",
"........       X",
".......XXXX     ",
".......X  X     ",
"..XX...X  X     ",
"X      XX X     ",
"X      X        ",
"X      X  X     ",
"X       XX      ",
"XX             X",
"XX            XX",
"XXXX         XXX",
"XXXXX       XXXX"
};
